<?xml version="1.0" encoding="UTF-8"?>
<!DOCTYPE svg PUBLIC "-//W3C//DTD SVG 1.1//EN" "http://www.w3.org/Graphics/SVG/1.1/DTD/svg11.dtd">
<svg version="1.1" xmlns="http://www.w3.org/2000/svg" xmlns:xlink="http://www.w3.org/1999/xlink" x="0" y="0" width="650" height="300" viewBox="0, 0, 650, 300">
  <g id="Background">
    <rect x="0" y="0" width="650" height="300" fill="#22B6E3"/>
  </g>
  <g id="Layer_1">
    <g>
      <g>
        <g>
          <path d="M92.394,265.301 C91.448,264.95 90.501,264.482 89.765,263.897 C86.188,260.972 85.241,254.889 87.24,250.327 C89.239,245.881 93.762,243.191 98.285,242.84 C101.02,242.723 104.386,243.893 105.017,246.934 C105.964,251.497 105.648,256.527 103.229,260.387 C101.02,264.248 96.497,266.588 92.394,265.301 z" fill="#FFFFFF"/>
          <path d="M92.394,265.301 C91.448,264.95 90.501,264.482 89.765,263.897 C86.188,260.972 85.241,254.889 87.24,250.327 C89.239,245.881 93.762,243.191 98.285,242.84 C101.02,242.723 104.386,243.893 105.017,246.934 C105.964,251.497 105.648,256.527 103.229,260.387 C101.02,264.248 96.497,266.588 92.394,265.301 z" fill-opacity="0" stroke="#FFFFFF" stroke-width="1"/>
        </g>
        <g>
          <path d="M164.87,39.403 C170.76,44.784 171.392,54.494 171.497,62.917 C171.602,67.011 171.602,71.34 169.919,74.966 C167.079,81.166 160.347,83.506 154.141,84.559 C151.721,85.027 149.091,85.261 146.988,84.091 C144.779,82.804 143.516,79.529 144.989,77.306 C148.355,72.275 150.669,66.426 151.721,60.226 C152.352,56.482 152.352,52.271 150.038,49.463 C148.46,47.475 146.146,46.656 143.727,46.539 C138.573,46.305 133.734,49.346 130.263,53.558 C126.791,57.769 124.688,63.034 122.584,68.298 C119.638,76.019 116.904,84.793 119.533,92.631 C120.796,96.14 123.005,99.182 125.424,101.639 C132.577,109.009 141.833,113.337 148.881,120.824 C160.873,133.576 164.134,155.803 155.298,171.362 C146.462,186.921 125.739,193.004 111.854,182.943 C104.281,177.445 99.337,168.437 95.655,159.312 C92.079,150.071 89.449,140.361 85.242,131.47 C84.61,130.183 83.558,128.779 82.401,129.247 C81.665,129.481 81.35,130.3 81.034,131.002 C68.727,161.418 70.62,198.502 85.767,227.281 C87.766,231.141 89.659,236.873 86.293,239.213 C85.136,240.032 83.769,240.032 82.401,239.915 C74.091,238.862 68.096,230.79 63.993,222.718 C51.476,197.8 49.372,166.565 58.418,139.776 C61.469,130.885 65.887,122.111 73.145,117.198 C80.403,112.284 90.922,112.284 96.602,119.303 C98.916,122.111 100.178,125.738 101.335,129.364 C104.07,138.138 106.069,147.38 109.54,155.803 C111.223,159.78 113.327,163.758 116.904,165.747 C121.111,168.203 126.581,166.916 130.157,163.524 C133.734,160.014 135.522,154.633 135.522,149.369 C135.627,137.904 128.474,127.96 121.216,119.654 C114.063,111.348 106.069,102.692 104.07,91.461 C102.282,81.751 105.227,71.69 109.645,63.151 C114.484,53.675 121.216,45.252 129.737,39.988 C138.257,34.723 148.671,32.734 158.033,35.776 C160.662,36.478 162.976,37.648 164.87,39.403 z" fill="#FFFFFF"/>
          <path d="M164.87,39.403 C170.76,44.784 171.392,54.494 171.497,62.917 C171.602,67.011 171.602,71.34 169.919,74.966 C167.079,81.166 160.347,83.506 154.141,84.559 C151.721,85.027 149.091,85.261 146.988,84.091 C144.779,82.804 143.516,79.529 144.989,77.306 C148.355,72.275 150.669,66.426 151.721,60.226 C152.352,56.482 152.352,52.271 150.038,49.463 C148.46,47.475 146.146,46.656 143.727,46.539 C138.573,46.305 133.734,49.346 130.263,53.558 C126.791,57.769 124.688,63.034 122.584,68.298 C119.638,76.019 116.904,84.793 119.533,92.631 C120.796,96.14 123.005,99.182 125.424,101.639 C132.577,109.009 141.833,113.337 148.881,120.824 C160.873,133.576 164.134,155.803 155.298,171.362 C146.462,186.921 125.739,193.004 111.854,182.943 C104.281,177.445 99.337,168.437 95.655,159.312 C92.079,150.071 89.449,140.361 85.242,131.47 C84.61,130.183 83.558,128.779 82.401,129.247 C81.665,129.481 81.35,130.3 81.034,131.002 C68.727,161.418 70.62,198.502 85.767,227.281 C87.766,231.141 89.659,236.873 86.293,239.213 C85.136,240.032 83.769,240.032 82.401,239.915 C74.091,238.862 68.096,230.79 63.993,222.718 C51.476,197.8 49.372,166.565 58.418,139.776 C61.469,130.885 65.887,122.111 73.145,117.198 C80.403,112.284 90.922,112.284 96.602,119.303 C98.916,122.111 100.178,125.738 101.335,129.364 C104.07,138.138 106.069,147.38 109.54,155.803 C111.223,159.78 113.327,163.758 116.904,165.747 C121.111,168.203 126.581,166.916 130.157,163.524 C133.734,160.014 135.522,154.633 135.522,149.369 C135.627,137.904 128.474,127.96 121.216,119.654 C114.063,111.348 106.069,102.692 104.07,91.461 C102.282,81.751 105.227,71.69 109.645,63.151 C114.484,53.675 121.216,45.252 129.737,39.988 C138.257,34.723 148.671,32.734 158.033,35.776 C160.662,36.478 162.976,37.648 164.87,39.403 z" fill-opacity="0" stroke="#FFFFFF" stroke-width="1"/>
        </g>
      </g>
      <g>
        <g>
          <path d="M451.09,107.722 C447.934,107.956 445.41,103.393 445.515,99.065 C445.62,94.737 447.724,90.876 450.248,88.185 C452.352,85.963 455.403,88.302 457.191,90.876 C458.138,92.163 459.084,93.801 459.084,95.672 C459.084,97.076 458.558,98.48 458.032,99.65 C456.349,103.393 454.246,107.488 451.09,107.722 z" fill="#FFFFFF"/>
          <path d="M451.09,107.722 C447.934,107.956 445.41,103.393 445.515,99.065 C445.62,94.737 447.724,90.876 450.248,88.185 C452.352,85.963 455.403,88.302 457.191,90.876 C458.138,92.163 459.084,93.801 459.084,95.672 C459.084,97.076 458.558,98.48 458.032,99.65 C456.349,103.393 454.246,107.488 451.09,107.722 z" fill-opacity="0" stroke="#FFFFFF" stroke-width="1"/>
        </g>
        <g>
          <path d="M595.831,148.316 C593.516,138.957 590.361,145.508 590.045,149.018 C589.098,158.026 586.469,166.682 582.682,174.052 C580.157,178.849 575.003,178.849 573.425,172.649 C570.795,162.003 572.058,149.369 573.636,138.021 C575.95,121.292 578.579,104.563 581.63,88.068 C583.418,78.242 575.844,68.649 568.902,69.468 C566.798,69.702 565.22,71.691 565.22,74.03 C564.379,105.967 558.699,137.67 548.601,166.448 C548.075,167.969 546.076,172.649 544.288,167.267 C542.5,161.886 544.182,153.814 545.655,147.731 C547.443,140.244 548.916,136.734 548.916,128.311 C548.916,123.164 532.191,121.877 532.191,128.311 C524.933,122.93 515.045,125.153 509.575,133.693 C505.788,139.542 504.105,147.38 501.896,154.633 C499.688,161.886 496.321,169.256 490.957,171.83 C485.487,174.403 478.124,168.905 478.86,161.184 C479.912,149.837 483.593,139.893 489.063,131.587 C491.167,128.428 492.009,129.949 492.85,132.289 C494.112,136.383 493.481,140.01 493.481,144.221 C493.481,145.976 494.323,147.614 496.427,145.391 C500.319,141.063 500.108,131.938 497.058,126.44 C493.271,119.42 485.802,117.549 479.807,120.239 C473.811,122.93 468.972,129.481 465.396,136.5 C462.45,142.35 460.662,149.369 457.927,155.569 C457.507,156.505 454.877,162.705 454.877,158.142 C454.877,151.942 456.875,140.712 456.875,133.342 C456.875,125.621 459.084,121.058 448.039,121.058 C446.251,121.058 444.673,122.228 443.937,124.1 C439.204,136.851 435.312,147.029 429,158.844 C428.264,160.248 424.267,167.501 424.267,160.482 C424.267,150.304 424.687,140.127 425.529,130.066 C425.845,126.206 426.265,122.228 427.948,119.069 C429.631,115.911 432.366,117.432 435.312,117.432 C440.045,117.432 440.571,112.05 440.571,106.786 C440.571,102.458 432.892,105.031 429.631,104.914 C429.316,104.914 429,104.563 429,104.212 C429.211,96.842 432.471,93.333 418.586,93.333 C416.588,93.333 415.326,94.503 415.326,97.778 C415.326,102.224 414.589,105.499 412.17,105.499 C407.121,105.499 406.49,104.563 405.333,104.563 C402.913,104.563 403.65,111.699 403.65,114.975 C403.65,117.198 408.383,117.081 411.118,117.198 C411.749,117.198 412.275,117.9 412.275,118.602 C411.328,136.5 406.805,154.75 399.442,169.49 C399.021,170.309 397.969,171.479 397.549,169.724 C395.866,163.407 398.811,155.686 400.389,149.135 C402.177,141.765 403.018,132.523 398.811,127.375 C393.972,121.643 386.083,126.089 382.086,132.991 C378.089,139.893 376.3,148.784 372.303,155.686 C374.197,149.486 376.09,143.051 375.669,136.383 C375.248,129.715 371.567,122.93 366.623,122.93 C359.155,122.813 356.314,135.798 353.579,145.274 C351.37,152.761 349.162,160.365 344.849,165.864 C343.797,167.15 341.062,171.713 341.062,163.524 C341.062,156.622 344.007,150.188 345.48,143.519 C346.321,139.776 347.058,135.915 347.058,132.055 C347.058,126.089 331.805,123.632 331.805,131.119 C321.707,128.311 309.295,127.492 303.299,138.957 C301.3,142.817 299.617,147.848 298.25,152.293 C296.146,159.546 293.306,166.097 289.414,171.362 C288.257,173 285.838,176.509 285.838,169.841 C285.838,163.407 288.047,156.973 289.73,150.889 C291.833,143.051 292.885,133.225 288.572,127.375 C284.996,122.462 278.895,122.813 274.372,126.206 C269.954,129.598 266.798,135.33 263.853,140.946 C266.483,132.055 257.857,123.164 251.02,125.504 C245.234,127.492 241.027,133.927 237.45,140.829 C238.923,135.213 235.873,127.375 231.35,125.738 C225.669,123.749 219.779,128.545 216.097,134.745 C212.415,140.946 210.312,148.667 207.051,155.335 C202.843,164.226 196.742,171.362 189.694,175.807 C186.118,178.03 180.964,174.871 180.753,170.66 C180.543,167.618 180.964,165.864 181.49,164.343 C182.857,160.95 187.17,159.429 189.169,159.078 C200.108,157.441 206.735,141.063 202.528,131.821 C198.32,122.579 188.117,121.292 181.384,127.024 C174.652,132.757 170.971,143.519 169.708,154.282 C168.657,162.471 168.972,171.596 172.443,178.381 C178.439,189.962 191.798,189.845 200.424,181.89 C209.049,174.052 214.098,160.833 218.832,148.199 C220.515,153.463 219.463,159.429 218.411,165.045 C217.359,170.543 214.835,177.796 216.938,182.826 C219.042,187.857 227.037,188.208 228.615,182.943 C233.453,167.852 239.239,153.463 246.076,139.893 C246.707,138.606 248.495,135.33 248.495,140.712 C248.495,145.04 246.917,149.252 245.76,153.346 C244.077,158.961 242.289,165.045 243.131,171.128 C243.972,177.094 248.495,182.592 252.703,180.487 C255.017,179.317 256.595,176.275 257.962,173.351 C263.537,161.535 269.112,149.72 274.688,137.904 C275.424,136.383 277.422,133.81 277.422,138.723 C277.422,145.274 275.529,151.708 274.477,158.142 C273.004,166.448 273.004,176.626 277.843,182.007 C284.365,189.378 297.408,179.083 300.459,171.011 C303.93,177.913 310.031,179.434 314.554,179.434 C321.707,179.434 327.493,169.022 327.493,165.045 C327.493,171.479 332.752,180.019 338.643,180.019 C344.533,180.019 349.793,174.637 352.948,167.852 C356.104,161.067 359.68,151.825 361.153,144.104 C363.152,150.772 360.206,159.429 359.47,166.916 C358.734,174.052 359.365,182.943 369.147,179.902 C371.777,179.083 372.724,175.69 373.881,173 C377.247,165.162 380.613,157.441 383.874,149.603 C384.084,149.135 385.136,146.912 384.716,149.837 C383.979,155.686 383.769,161.652 384.821,167.267 C385.978,173.935 389.554,180.253 394.393,181.54 C401.967,183.645 408.278,173.351 411.223,163.524 C411.223,173.468 415.852,178.498 421.847,178.498 C430.894,178.498 437.521,165.747 442.044,156.271 C442.044,165.63 445.41,176.041 452.352,176.041 C459.4,176.041 465.711,164.226 465.711,159.195 C467.605,170.426 473.811,180.487 481.91,183.762 C490.01,187.038 499.688,182.826 504.105,173 C506.945,179.668 512.836,183.762 518.411,182.826 C523.986,182.007 529.035,176.275 530.718,168.905 C532.927,177.445 539.87,182.943 546.391,181.54 C552.913,180.019 556.385,170.309 558.278,162.588 C559.54,180.604 576.265,192.77 587.836,184.113 C596.462,177.094 598.986,160.833 595.831,148.316 z M189.379,133.459 C190.746,133.459 194.744,135.096 194.744,139.191 C194.744,141.063 194.323,141.999 193.902,143.168 C192.219,147.263 189.063,150.188 185.592,150.538 C185.276,150.538 185.066,150.538 184.751,150.421 C184.225,149.954 184.119,149.018 184.119,148.199 C184.225,142.466 185.802,133.459 189.379,133.459 z M324.758,157.558 C323.18,161.301 320.866,168.086 316.027,168.086 C313.713,168.086 313.502,166.448 312.976,163.056 C311.924,155.92 314.028,150.538 317.184,144.572 C319.183,140.946 322.443,136.734 325.915,136.734 C327.703,136.734 328.334,137.904 328.334,140.829 C328.439,147.029 325.389,156.154 324.758,157.558 z M526.511,159.195 C524.933,162.939 522.619,169.724 517.78,169.724 C515.466,169.724 515.255,168.086 514.729,164.694 C513.678,157.558 515.781,152.176 518.937,146.21 C520.936,142.583 524.197,138.372 527.668,138.372 C529.456,138.372 530.087,139.542 530.087,142.466 C530.192,148.55 527.142,157.675 526.511,159.195 z" fill="#FFFFFF"/>
          <path d="M595.831,148.316 C593.516,138.957 590.361,145.508 590.045,149.018 C589.098,158.026 586.469,166.682 582.682,174.052 C580.157,178.849 575.003,178.849 573.425,172.649 C570.795,162.003 572.058,149.369 573.636,138.021 C575.95,121.292 578.579,104.563 581.63,88.068 C583.418,78.242 575.844,68.649 568.902,69.468 C566.798,69.702 565.22,71.691 565.22,74.03 C564.379,105.967 558.699,137.67 548.601,166.448 C548.075,167.969 546.076,172.649 544.288,167.267 C542.5,161.886 544.182,153.814 545.655,147.731 C547.443,140.244 548.916,136.734 548.916,128.311 C548.916,123.164 532.191,121.877 532.191,128.311 C524.933,122.93 515.045,125.153 509.575,133.693 C505.788,139.542 504.105,147.38 501.896,154.633 C499.688,161.886 496.321,169.256 490.957,171.83 C485.487,174.403 478.124,168.905 478.86,161.184 C479.912,149.837 483.593,139.893 489.063,131.587 C491.167,128.428 492.009,129.949 492.85,132.289 C494.112,136.383 493.481,140.01 493.481,144.221 C493.481,145.976 494.323,147.614 496.427,145.391 C500.319,141.063 500.108,131.938 497.058,126.44 C493.271,119.42 485.802,117.549 479.807,120.239 C473.811,122.93 468.972,129.481 465.396,136.5 C462.45,142.35 460.662,149.369 457.927,155.569 C457.507,156.505 454.877,162.705 454.877,158.142 C454.877,151.942 456.875,140.712 456.875,133.342 C456.875,125.621 459.084,121.058 448.039,121.058 C446.251,121.058 444.673,122.228 443.937,124.1 C439.204,136.851 435.312,147.029 429,158.844 C428.264,160.248 424.267,167.501 424.267,160.482 C424.267,150.304 424.687,140.127 425.529,130.066 C425.845,126.206 426.265,122.228 427.948,119.069 C429.631,115.911 432.366,117.432 435.312,117.432 C440.045,117.432 440.571,112.05 440.571,106.786 C440.571,102.458 432.892,105.031 429.631,104.914 C429.316,104.914 429,104.563 429,104.212 C429.211,96.842 432.471,93.333 418.586,93.333 C416.588,93.333 415.326,94.503 415.326,97.778 C415.326,102.224 414.589,105.499 412.17,105.499 C407.121,105.499 406.49,104.563 405.333,104.563 C402.913,104.563 403.65,111.699 403.65,114.975 C403.65,117.198 408.383,117.081 411.118,117.198 C411.749,117.198 412.275,117.9 412.275,118.602 C411.328,136.5 406.805,154.75 399.442,169.49 C399.021,170.309 397.969,171.479 397.549,169.724 C395.866,163.407 398.811,155.686 400.389,149.135 C402.177,141.765 403.018,132.523 398.811,127.375 C393.972,121.643 386.083,126.089 382.086,132.991 C378.089,139.893 376.3,148.784 372.303,155.686 C374.197,149.486 376.09,143.051 375.669,136.383 C375.248,129.715 371.567,122.93 366.623,122.93 C359.155,122.813 356.314,135.798 353.579,145.274 C351.37,152.761 349.162,160.365 344.849,165.864 C343.797,167.15 341.062,171.713 341.062,163.524 C341.062,156.622 344.007,150.188 345.48,143.519 C346.321,139.776 347.058,135.915 347.058,132.055 C347.058,126.089 331.805,123.632 331.805,131.119 C321.707,128.311 309.295,127.492 303.299,138.957 C301.3,142.817 299.617,147.848 298.25,152.293 C296.146,159.546 293.306,166.097 289.414,171.362 C288.257,173 285.838,176.509 285.838,169.841 C285.838,163.407 288.047,156.973 289.73,150.889 C291.833,143.051 292.885,133.225 288.572,127.375 C284.996,122.462 278.895,122.813 274.372,126.206 C269.954,129.598 266.798,135.33 263.853,140.946 C266.483,132.055 257.857,123.164 251.02,125.504 C245.234,127.492 241.027,133.927 237.45,140.829 C238.923,135.213 235.873,127.375 231.35,125.738 C225.669,123.749 219.779,128.545 216.097,134.745 C212.415,140.946 210.312,148.667 207.051,155.335 C202.843,164.226 196.742,171.362 189.694,175.807 C186.118,178.03 180.964,174.871 180.753,170.66 C180.543,167.618 180.964,165.864 181.49,164.343 C182.857,160.95 187.17,159.429 189.169,159.078 C200.108,157.441 206.735,141.063 202.528,131.821 C198.32,122.579 188.117,121.292 181.384,127.024 C174.652,132.757 170.971,143.519 169.708,154.282 C168.657,162.471 168.972,171.596 172.443,178.381 C178.439,189.962 191.798,189.845 200.424,181.89 C209.049,174.052 214.098,160.833 218.832,148.199 C220.515,153.463 219.463,159.429 218.411,165.045 C217.359,170.543 214.835,177.796 216.938,182.826 C219.042,187.857 227.037,188.208 228.615,182.943 C233.453,167.852 239.239,153.463 246.076,139.893 C246.707,138.606 248.495,135.33 248.495,140.712 C248.495,145.04 246.917,149.252 245.76,153.346 C244.077,158.961 242.289,165.045 243.131,171.128 C243.972,177.094 248.495,182.592 252.703,180.487 C255.017,179.317 256.595,176.275 257.962,173.351 C263.537,161.535 269.112,149.72 274.688,137.904 C275.424,136.383 277.422,133.81 277.422,138.723 C277.422,145.274 275.529,151.708 274.477,158.142 C273.004,166.448 273.004,176.626 277.843,182.007 C284.365,189.378 297.408,179.083 300.459,171.011 C303.93,177.913 310.031,179.434 314.554,179.434 C321.707,179.434 327.493,169.022 327.493,165.045 C327.493,171.479 332.752,180.019 338.643,180.019 C344.533,180.019 349.793,174.637 352.948,167.852 C356.104,161.067 359.68,151.825 361.153,144.104 C363.152,150.772 360.206,159.429 359.47,166.916 C358.734,174.052 359.365,182.943 369.147,179.902 C371.777,179.083 372.724,175.69 373.881,173 C377.247,165.162 380.613,157.441 383.874,149.603 C384.084,149.135 385.136,146.912 384.716,149.837 C383.979,155.686 383.769,161.652 384.821,167.267 C385.978,173.935 389.554,180.253 394.393,181.54 C401.967,183.645 408.278,173.351 411.223,163.524 C411.223,173.468 415.852,178.498 421.847,178.498 C430.894,178.498 437.521,165.747 442.044,156.271 C442.044,165.63 445.41,176.041 452.352,176.041 C459.4,176.041 465.711,164.226 465.711,159.195 C467.605,170.426 473.811,180.487 481.91,183.762 C490.01,187.038 499.688,182.826 504.105,173 C506.945,179.668 512.836,183.762 518.411,182.826 C523.986,182.007 529.035,176.275 530.718,168.905 C532.927,177.445 539.87,182.943 546.391,181.54 C552.913,180.019 556.385,170.309 558.278,162.588 C559.54,180.604 576.265,192.77 587.836,184.113 C596.462,177.094 598.986,160.833 595.831,148.316 z M189.379,133.459 C190.746,133.459 194.744,135.096 194.744,139.191 C194.744,141.063 194.323,141.999 193.902,143.168 C192.219,147.263 189.063,150.188 185.592,150.538 C185.276,150.538 185.066,150.538 184.751,150.421 C184.225,149.954 184.119,149.018 184.119,148.199 C184.225,142.466 185.802,133.459 189.379,133.459 z M324.758,157.558 C323.18,161.301 320.866,168.086 316.027,168.086 C313.713,168.086 313.502,166.448 312.976,163.056 C311.924,155.92 314.028,150.538 317.184,144.572 C319.183,140.946 322.443,136.734 325.915,136.734 C327.703,136.734 328.334,137.904 328.334,140.829 C328.439,147.029 325.389,156.154 324.758,157.558 z M526.511,159.195 C524.933,162.939 522.619,169.724 517.78,169.724 C515.466,169.724 515.255,168.086 514.729,164.694 C513.678,157.558 515.781,152.176 518.937,146.21 C520.936,142.583 524.197,138.372 527.668,138.372 C529.456,138.372 530.087,139.542 530.087,142.466 C530.192,148.55 527.142,157.675 526.511,159.195 z" fill-opacity="0" stroke="#FFFFFF" stroke-width="1"/>
        </g>
      </g>
    </g>
    <text transform="matrix(1, 0, 0, 1, 397.497, 250.84)">
      <tspan x="-199.639" y="15.642" font-family="Copperplate-Bold" font-size="62" fill="#FFFFFF">Word Power</tspan>
    </text>
  </g>
</svg>
